<?xml version="1.0" encoding="UTF-8" standalone="no"?>
<svg
   xmlns:dc="http://purl.org/dc/elements/1.1/"
   xmlns:cc="http://creativecommons.org/ns#"
   xmlns:rdf="http://www.w3.org/1999/02/22-rdf-syntax-ns#"
   xmlns:svg="http://www.w3.org/2000/svg"
   xmlns="http://www.w3.org/2000/svg"
   xmlns:sodipodi="http://sodipodi.sourceforge.net/DTD/sodipodi-0.dtd"
   xmlns:inkscape="http://www.inkscape.org/namespaces/inkscape"
   width="1920px"
   height="720px"
   viewBox="0 0 1920 720"
   version="1.1"
   id="SVGRoot"
   sodipodi:docname="phonin.svg"
   inkscape:version="1.0.2 (e86c870879, 2021-01-15)">
  <defs
     id="defs78" />
  <sodipodi:namedview
     id="base"
     pagecolor="#ffffff"
     bordercolor="#666666"
     borderopacity="1.0"
     inkscape:pageopacity="0.0"
     inkscape:pageshadow="2"
     inkscape:zoom="0.35"
     inkscape:cx="400"
     inkscape:cy="560"
     inkscape:document-units="px"
     inkscape:current-layer="layer1"
     inkscape:document-rotation="0"
     showgrid="false"
     inkscape:window-width="1343"
     inkscape:window-height="908"
     inkscape:window-x="0"
     inkscape:window-y="0"
     inkscape:window-maximized="0" />
  <metadata
     id="metadata81">
    <rdf:RDF>
      <cc:Work
         rdf:about="">
        <dc:format>image/svg+xml</dc:format>
        <dc:type
           rdf:resource="http://purl.org/dc/dcmitype/StillImage" />
        <dc:title></dc:title>
      </cc:Work>
    </rdf:RDF>
  </metadata>
  <g
     inkscape:label="Layer 1"
     inkscape:groupmode="layer"
     id="layer1">
    <path
       d="m 336.91015,234.47333 c -20.9365,-17.58638 -49.83041,-26.37957 -86.67823,-26.37957 H 145.13151 v 19.26144 h 105.10041 c 30.98685,0 54.8521,7.11813 71.60269,20.93651 16.32922,13.81837 24.70451,33.4977 24.70451,58.62359 0,25.54379 -8.37529,45.22313 -24.70451,58.6236 -16.75059,13.81837 -40.61584,20.51861 -71.60269,20.51861 H 145.13151 v 115.15076 h 21.3544 v -95.88931 h 83.74601 c 36.84782,0 65.74173,-8.37531 86.67823,-25.96169 20.9365,-17.58638 31.40475,-41.45511 31.40475,-72.44197 0,-30.56896 -10.46825,-54.8521 -31.40475,-72.44197 z"
       fill="#eb7f30"
       stroke="#eb7f30"
       id="path2"
       style="stroke-width:3.48246" />
    <path
       d="m 679.02624,208.09376 h -21.35439 v 134.8301 H 461.7073 v -134.8301 h -21.3544 v 293.11103 h 21.3544 V 361.76741 h 195.96455 v 139.43738 h 21.35439 z"
       fill="#e27a30"
       stroke="#e27a30"
       id="path4"
       style="stroke-width:3.48246" />
    <path
       d="m 827.87321,484.00496 c 23.02946,12.97909 48.9911,19.26145 77.88506,19.26145 28.47251,0 54.43415,-6.28236 77.88503,-19.26145 23.0295,-12.5612 41.0373,-30.56896 54.4342,-53.17704 13.397,-22.60809 20.1007,-47.73397 20.1007,-76.20999 0,-28.05463 -6.7002,-53.59842 -20.1007,-76.20998 -13.4004,-22.61156 -31.4047,-40.19794 -54.4342,-53.17705 -23.44738,-12.56119 -49.40903,-19.26143 -77.88503,-19.26143 -28.89396,0 -54.85211,6.70024 -77.88506,19.67933 -23.44734,12.97911 -41.4551,30.56897 -54.8521,53.17705 -13.397,22.60808 -19.67934,48.15534 -19.67934,75.7886 0,28.05464 6.28234,53.17705 19.67934,75.78861 13.397,22.61156 31.40476,40.61584 54.8521,53.59841 z m 144.4626,-17.16849 c -20.10072,11.30404 -42.29098,16.75059 -66.57754,16.75059 -24.70452,0 -46.89816,-5.44306 -66.99539,-16.75059 -20.10076,-10.88614 -35.5907,-26.37958 -46.89822,-46.05891 -11.72542,-19.67933 -17.16849,-41.873 -17.16849,-66.15963 0,-24.28662 5.44307,-46.0589 17.16849,-65.74173 11.30403,-19.67933 26.79746,-35.17276 46.89822,-46.48028 20.10072,-10.88615 42.29087,-16.7506 66.99539,-16.7506 24.28656,0 46.48031,5.86097 66.57754,16.7506 19.67927,11.30404 35.17269,26.79746 46.89819,46.48028 11.304,19.67934 17.1685,41.45511 17.1685,65.74173 0,24.28663 -5.861,46.4803 -17.1685,66.15963 -11.7255,19.67933 -27.21892,35.17277 -46.89819,46.05891 z"
       fill="#d97430"
       stroke="#d97430"
       id="path6"
       style="stroke-width:3.48246" />
    <path
       d="m 1370.8851,208.09376 h -21.3545 V 462.6819 L 1150.2125,208.09376 h -18.0043 v 293.11103 h 21.3544 V 246.61665 l 199.7326,254.58814 h 17.5864 z"
       fill="#d06f30"
       stroke="#d06f30"
       id="path8"
       style="stroke-width:3.48246" />
    <path
       d="m 1473.2447,208.09376 v 293.11103 h 21.3545 V 208.09376 Z"
       fill="#c76930"
       stroke="#c76930"
       id="path10"
       style="stroke-width:3.48246" />
    <path
       d="m 1835.4441,208.09376 h -21.3543 V 462.6819 L 1614.7716,208.09376 h -18.0043 v 293.11103 h 21.3545 V 246.61665 l 199.7325,254.58814 h 17.5863 z"
       fill="#be6430"
       stroke="#be6430"
       id="path12"
       style="stroke-width:3.48246" />
  </g>
</svg>
