<svg xmlns="http://www.w3.org/2000/svg" viewBox="0 0 1024 768" stroke-width="1.67" stroke-miterlimit="2" xmlns:v="https://vecta.io/nano"><path d="M324.387 349.495c-6.012-5.05-14.309-7.575-24.89-7.575h-30.18v5.531h30.18c8.898 0 15.751 2.044 20.561 6.012 4.689 3.968 7.094 9.619 7.094 16.834 0 7.335-2.405 12.986-7.094 16.834-4.81 3.968-11.663 5.892-20.561 5.892h-30.18v33.066h6.132v-27.535h24.048c10.581 0 18.878-2.405 24.89-7.455s9.018-11.904 9.018-20.802c0-8.778-3.006-15.751-9.018-20.802z" fill="#eb7f30" stroke="#eb7f30"/><path d="M422.627 341.92h-6.132v38.717h-56.272V341.92h-6.132v84.168h6.132v-40.04h56.272v40.04h6.132z" fill="#e27a30" stroke="#e27a30"/><path d="M465.369 421.149c6.613 3.727 14.068 5.531 22.365 5.531 8.176 0 15.631-1.804 22.365-5.531 6.613-3.607 11.784-8.778 15.631-15.27s5.772-13.707 5.772-21.884c0-8.056-1.924-15.391-5.772-21.884s-9.018-11.543-15.631-15.27c-6.733-3.607-14.188-5.531-22.365-5.531-8.297 0-15.751 1.924-22.365 5.651-6.733 3.727-11.904 8.778-15.751 15.27s-5.651 13.828-5.651 21.763c0 8.056 1.804 15.27 5.651 21.763s9.018 11.663 15.751 15.391zm41.483-4.93c-5.772 3.246-12.144 4.81-19.118 4.81-7.094 0-13.467-1.563-19.238-4.81-5.772-3.126-10.22-7.575-13.467-13.226-3.367-5.651-4.93-12.024-4.93-18.998s1.563-13.226 4.93-18.878c3.246-5.651 7.695-10.1 13.467-13.347 5.772-3.126 12.144-4.81 19.238-4.81 6.974 0 13.347 1.683 19.118 4.81 5.651 3.246 10.1 7.695 13.467 13.347 3.246 5.651 4.93 11.904 4.93 18.878s-1.683 13.347-4.93 18.998c-3.367 5.651-7.816 10.1-13.467 13.226z" fill="#d97430" stroke="#d97430"/><path d="M621.297 341.92h-6.132v73.106L557.93 341.92h-5.17v84.168h6.132v-73.106l57.354 73.106h5.05z" fill="#d06f30" stroke="#d06f30"/><path d="M650.69 341.92v84.168h6.132V341.92z" fill="#c76930" stroke="#c76930"/><path d="M754.697 341.92h-6.132v73.106L691.33 341.92h-5.17v84.168h6.132v-73.106l57.354 73.106h5.05z" fill="#be6430" stroke="#be6430"/></svg>